<?xml version="1.0" standalone="no"?>
<!DOCTYPE svg PUBLIC "-//W3C//DTD SVG 20010904//EN"
 "http://www.w3.org/TR/2001/REC-SVG-20010904/DTD/svg10.dtd">
<svg version="1.0" xmlns="http://www.w3.org/2000/svg"
 width="225.000000pt" height="225.000000pt" viewBox="0 0 225.000000 225.000000"
 preserveAspectRatio="xMidYMid meet">
<metadata>
Created by potrace 1.11, written by Peter Selinger 2001-2013
</metadata>
<g transform="translate(0.000000,225.000000) scale(0.100000,-0.100000)"
fill="#000000" stroke="none">
<path d="M861 1868 c-19 -27 -37 -48 -40 -48 -3 0 -19 9 -36 20 -16 11 -33 20
-37 20 -4 0 -5 -28 -2 -62 10 -116 24 -231 28 -235 2 -2 35 12 74 31 l69 35
-4 73 c-3 40 -8 105 -12 143 l-6 70 -34 -47z"/>
<path d="M1460 1777 c-96 -44 -278 -126 -404 -182 l-228 -102 -155 32 -154 32
5 -61 c4 -34 20 -326 37 -651 16 -324 31 -595 33 -600 2 -6 60 -28 130 -49
l125 -39 408 158 c224 87 412 162 416 165 9 8 -20 1233 -31 1321 l-7 56 -175
-80z m-201 -509 c1 -32 3 -58 5 -58 2 0 33 11 70 25 l66 25 0 -54 0 -54 -62
-25 -63 -25 0 -54 c0 -29 4 -122 9 -205 l8 -153 -47 -20 c-26 -11 -49 -20 -51
-20 -2 0 -4 71 -4 158 0 86 -3 180 -6 208 l-7 52 -70 -29 c-38 -16 -71 -29
-73 -29 -2 0 -4 24 -4 54 l0 53 75 29 75 29 0 113 0 113 33 14 32 13 7 -51 c3
-29 6 -78 7 -109z"/>
</g>
</svg>
