<?xml version="1.0" encoding="UTF-8" standalone="no"?>
<!-- Created with Inkscape (http://www.inkscape.org/) -->

<svg
   xmlns:dc="http://purl.org/dc/elements/1.1/"
   xmlns:cc="http://creativecommons.org/ns#"
   xmlns:rdf="http://www.w3.org/1999/02/22-rdf-syntax-ns#"
   xmlns:svg="http://www.w3.org/2000/svg"
   xmlns="http://www.w3.org/2000/svg"
   xmlns:sodipodi="http://sodipodi.sourceforge.net/DTD/sodipodi-0.dtd"
   xmlns:inkscape="http://www.inkscape.org/namespaces/inkscape"
   width="619"
   height="388"
   id="svg3344"
   version="1.1"
   inkscape:version="0.91 r13725"
   viewBox="0 0 619 388"
   sodipodi:docname="afbclogo.svg"
   inkscape:export-filename="C:\Users\263952\Pictures\afbclogo.png"
   inkscape:export-xdpi="299.92267"
   inkscape:export-ydpi="299.92267">
  <title
     id="title4227">AFBC Logo</title>
  <defs
     id="defs3346" />
  <sodipodi:namedview
     id="base"
     pagecolor="#ffffff"
     bordercolor="#666666"
     borderopacity="1.0"
     inkscape:pageopacity="0.0"
     inkscape:pageshadow="2"
     inkscape:zoom="1.4142136"
     inkscape:cx="357.9764"
     inkscape:cy="116.38157"
     inkscape:current-layer="layer4"
     inkscape:document-units="px"
     showgrid="false"
     inkscape:snap-grids="false"
     inkscape:window-width="1920"
     inkscape:window-height="1028"
     inkscape:window-x="1672"
     inkscape:window-y="-8"
     inkscape:window-maximized="1"
     inkscape:snap-midpoints="true"
     inkscape:snap-bbox="true"
     fit-margin-top="0"
     fit-margin-left="0"
     fit-margin-right="0"
     fit-margin-bottom="0" />
  <metadata
     id="metadata3349">
    <rdf:RDF>
      <cc:Work
         rdf:about="">
        <dc:format>image/svg+xml</dc:format>
        <dc:type
           rdf:resource="http://purl.org/dc/dcmitype/StillImage" />
        <dc:title>AFBC Logo</dc:title>
      </cc:Work>
    </rdf:RDF>
  </metadata>
  <g
     inkscape:groupmode="layer"
     id="layer8"
     inkscape:label="circle3"
     style="display:inline"
     transform="translate(-317,-291)">
    <ellipse
       cy="451.81433"
       cx="753.99817"
       id="circle4203"
       style="opacity:1;fill:#c5ccb9;fill-opacity:1;stroke:#ffffff;stroke-width:2.58864498;stroke-miterlimit:4;stroke-dasharray:none;stroke-opacity:1"
       rx="151.52675"
       ry="146.56091"
       inkscape:export-xdpi="299.96918"
       inkscape:export-ydpi="299.96918" />
  </g>
  <g
     inkscape:groupmode="layer"
     id="layer7"
     inkscape:label="circle2"
     style="display:inline"
     transform="translate(-317,-291)">
    <ellipse
       style="opacity:1;fill:#e9cbb1;fill-opacity:1;stroke:#ffffff;stroke-width:2.03172827;stroke-miterlimit:4;stroke-dasharray:none;stroke-opacity:1"
       id="circle4199"
       cx="753.90979"
       cy="452.34467"
       rx="118.22673"
       ry="115.71197"
       inkscape:export-xdpi="299.96918"
       inkscape:export-ydpi="299.96918" />
  </g>
  <g
     inkscape:groupmode="layer"
     id="layer6"
     inkscape:label="circle1"
     style="display:inline"
     transform="translate(-317,-291)">
    <ellipse
       cy="452.34467"
       cx="753.90979"
       id="circle4195"
       style="opacity:1;fill:#eee1b9;fill-opacity:1;stroke:#ffffff;stroke-width:2.0348618;stroke-miterlimit:4;stroke-dasharray:none;stroke-opacity:1"
       rx="86.157608"
       ry="84.582565"
       inkscape:export-xdpi="299.96918"
       inkscape:export-ydpi="299.96918" />
  </g>
  <g
     inkscape:groupmode="layer"
     id="layer1"
     inkscape:label="circle2arrow"
     transform="translate(-317,-291)">
    <path
       style="display:inline;opacity:1;fill:#e9cbb1;fill-opacity:1;stroke:#ffffff;stroke-width:2;stroke-miterlimit:4;stroke-dasharray:none;stroke-opacity:1"
       d="m 774.77356,339.45302 1.96829,-10.00092 18.60238,29.02124 -28.79642,18.58419 0.612,-2.39134 0.70039,-2.39133 c 0,0 0.37602,-1.45554 0.52361,-2.17036 0.074,-0.35857 0.18674,-0.85605 0.25884,-1.30808 0.0721,-0.45203 0.12571,-0.81442 0.12571,-0.81442"
       id="rect4171"
       inkscape:connector-curvature="0"
       sodipodi:nodetypes="ccccccssc"
       inkscape:export-xdpi="299.96918"
       inkscape:export-ydpi="299.96918" />
  </g>
  <g
     inkscape:groupmode="layer"
     id="layer5"
     inkscape:label="circle0"
     style="display:inline"
     transform="translate(-317,-291)">
    <ellipse
       style="opacity:1;fill:#ebefc9;fill-opacity:1;stroke:#ffffff;stroke-width:2.05349827;stroke-miterlimit:4;stroke-dasharray:none;stroke-opacity:1"
       id="path4191"
       cx="753.90979"
       cy="452.34467"
       rx="53.44611"
       ry="53.446117"
       inkscape:export-xdpi="299.96918"
       inkscape:export-ydpi="299.96918" />
  </g>
  <g
     inkscape:groupmode="layer"
     id="layer9"
     inkscape:label="cross"
     style="display:inline"
     transform="translate(-317,-291)" />
  <g
     inkscape:groupmode="layer"
     id="layer2"
     inkscape:label="baptist"
     style="display:inline"
     transform="translate(-317,-291)">
    <text
       xml:space="preserve"
       style="font-style:italic;font-variant:normal;font-weight:normal;font-stretch:normal;font-size:100px;line-height:125%;font-family:'Tw Cen MT';-inkscape-font-specification:'Tw Cen MT Italic';letter-spacing:0px;word-spacing:0px;fill:#000000;fill-opacity:1;stroke:none;stroke-width:1px;stroke-linecap:butt;stroke-linejoin:miter;stroke-opacity:1"
       x="621.66669"
       y="649"
       id="text3356"
       sodipodi:linespacing="125%"
       inkscape:export-xdpi="299.96918"
       inkscape:export-ydpi="299.96918"><tspan
         sodipodi:role="line"
         id="tspan3358"
         x="621.66669"
         y="649">baptist</tspan></text>
  </g>
  <g
     inkscape:groupmode="layer"
     id="layer4"
     inkscape:label="adamsville"
     style="display:inline"
     transform="translate(-317,-291)">
    <text
       xml:space="preserve"
       style="font-style:italic;font-variant:normal;font-weight:normal;font-stretch:normal;font-size:100px;line-height:125%;font-family:'Tw Cen MT';-inkscape-font-specification:'Tw Cen MT Italic';letter-spacing:0px;word-spacing:0px;fill:#000000;fill-opacity:1;stroke:none;stroke-width:1px;stroke-linecap:butt;stroke-linejoin:miter;stroke-opacity:1"
       x="345"
       y="493.66669"
       id="text3352"
       sodipodi:linespacing="125%"
       inkscape:export-xdpi="299.96918"
       inkscape:export-ydpi="299.96918"><tspan
         sodipodi:role="line"
         id="tspan3354"
         x="345"
         y="493.66669"
         style="font-style:italic;font-variant:normal;font-weight:normal;font-stretch:normal;font-size:100px;font-family:'Tw Cen MT';-inkscape-font-specification:'Tw Cen MT Italic'">adamsville</tspan></text>
  </g>
  <g
     inkscape:groupmode="layer"
     id="layer3"
     inkscape:label="firs"
     style="display:inline"
     transform="translate(-317,-291)">
    <text
       xml:space="preserve"
       style="font-style:normal;font-weight:normal;font-size:40px;line-height:125%;font-family:sans-serif;letter-spacing:0px;word-spacing:0px;fill:#000000;fill-opacity:1;stroke:none;stroke-width:1px;stroke-linecap:butt;stroke-linejoin:miter;stroke-opacity:1"
       x="559"
       y="572"
       id="text3368"
       sodipodi:linespacing="125%"
       inkscape:export-xdpi="299.96918"
       inkscape:export-ydpi="299.96918"><tspan
         sodipodi:role="line"
         id="tspan3370"
         x="559"
         y="572"
         style="font-style:italic;font-variant:normal;font-weight:bold;font-stretch:normal;font-size:100px;font-family:'Times New Roman';-inkscape-font-specification:'Times New Roman, Bold Italic'"> f </tspan></text>
    <text
       xml:space="preserve"
       style="font-style:normal;font-weight:normal;font-size:40px;line-height:125%;font-family:sans-serif;letter-spacing:0px;word-spacing:0px;fill:#000000;fill-opacity:1;stroke:none;stroke-width:1px;stroke-linecap:butt;stroke-linejoin:miter;stroke-opacity:1"
       x="622"
       y="572"
       id="text3364"
       sodipodi:linespacing="125%"
       inkscape:export-xdpi="299.96918"
       inkscape:export-ydpi="299.96918"><tspan
         sodipodi:role="line"
         id="tspan3366"
         x="622"
         y="572"
         style="font-style:italic;font-variant:normal;font-weight:bold;font-stretch:normal;font-size:100px;font-family:'Times New Roman';-inkscape-font-specification:'Times New Roman, Bold Italic';letter-spacing:0px">irs</tspan></text>
  </g>
  <g
     transform="matrix(0.03834675,0,0,-0.03834675,404.73906,284.29375)"
     id="g8286"
     style="fill:#000000;stroke:none"
     inkscape:export-xdpi="299.96918"
     inkscape:export-ydpi="299.96918">
    <path
       d="m 2031,5679 c -31,-12 -78,-66 -108,-124 -27,-53 -90,-218 -103,-271 -4,-18 -10,-37 -14,-42 -15,-25 -130,-358 -243,-707 -19,-60 -46,-134 -60,-162 l -24,-53 -555,0 c -458,0 -560,-2 -582,-14 -33,-17 -38,-30 -137,-322 -25,-72 -61,-167 -82,-210 C 87,3696 14,3521 3,3488 c -5,-17 27,-18 586,-18 l 591,0 10,-26 c 12,-31 -2,-84 -80,-304 -28,-80 -57,-163 -65,-185 -7,-22 -36,-105 -64,-185 -29,-80 -67,-190 -86,-245 -18,-55 -52,-152 -75,-215 -23,-63 -56,-160 -75,-215 -63,-186 -125,-360 -135,-377 -5,-10 -10,-23 -10,-29 0,-6 -6,-25 -14,-42 -14,-33 -51,-133 -81,-222 -9,-27 -21,-58 -26,-67 -5,-10 -9,-24 -9,-32 0,-7 -7,-27 -15,-42 -8,-16 -15,-39 -15,-51 0,-12 -4,-25 -10,-28 -5,-3 -10,-19 -10,-35 0,-16 -4,-31 -9,-35 -5,-3 -13,-20 -17,-37 -6,-31 -10,-40 -34,-88 -5,-11 -10,-28 -10,-38 0,-10 -7,-27 -15,-38 -8,-10 -15,-26 -15,-35 0,-9 -7,-30 -15,-45 -8,-16 -15,-37 -15,-46 0,-9 -4,-27 -9,-40 -5,-13 -16,-48 -26,-78 -19,-61 -25,-78 -49,-133 -9,-21 -16,-46 -16,-57 0,-10 -5,-22 -10,-25 -6,-3 -10,-16 -10,-29 0,-12 -4,-26 -9,-31 -4,-6 -16,-35 -25,-65 C 127,320 106,267 89,233 26,101 -1,27 12,18 28,8 881,8 896,18 c 13,9 44,91 44,117 0,25 44,148 71,198 11,21 27,60 34,85 16,56 128,383 136,397 3,6 14,39 24,75 9,36 26,90 37,120 11,30 22,64 25,75 2,11 8,29 12,40 10,25 20,54 76,220 67,197 90,259 97,271 4,6 11,28 17,50 20,83 41,155 66,226 15,40 51,147 81,238 31,91 59,174 64,185 5,11 22,61 39,110 25,74 91,263 114,325 3,8 18,51 33,95 26,78 170,439 214,541 39,89 6,84 599,84 316,0 521,4 521,9 0,5 8,12 19,16 23,7 69,117 116,280 29,102 42,139 75,211 50,108 56,124 86,204 15,41 33,84 41,96 7,11 10,24 6,27 -3,4 -258,7 -566,7 -338,-1 -564,3 -570,9 -15,15 70,263 152,441 70,152 91,198 91,204 0,3 11,29 23,58 20,46 41,93 112,263 46,109 76,211 66,231 -9,22 -73,44 -125,44 -14,0 -86,11 -158,25 -175,33 -214,40 -333,60 -55,9 -118,20 -141,24 -22,4 -50,4 -63,0 z"
       id="path8288"
       inkscape:connector-curvature="0" />
  </g>
</svg>
